<?xml version="1.0" encoding="UTF-8" standalone="no"?>
<svg
   xmlns:dc="http://purl.org/dc/elements/1.1/"
   xmlns:cc="http://creativecommons.org/ns#"
   xmlns:rdf="http://www.w3.org/1999/02/22-rdf-syntax-ns#"
   xmlns:svg="http://www.w3.org/2000/svg"
   xmlns="http://www.w3.org/2000/svg"
   id="svg4"
   xml:space="preserve"
   viewBox="0 0 1024 768"
   y="0px"
   x="0px"
   version="1.1"><metadata
     id="metadata10"><rdf:RDF><cc:Work
         rdf:about=""><dc:format>image/svg+xml</dc:format><dc:type
           rdf:resource="http://purl.org/dc/dcmitype/StillImage" /></cc:Work></rdf:RDF></metadata><defs
     id="defs8" /><path
     id="path2"
     d="m357.13 320.13c-4.4799 0-8.064 1.281-10.752 3.7129-2.8159 2.5599-4.0957 5.6309-4.0957 9.2148 0 3.7119 1.2798 6.7849 4.0957 9.2168 2.6879 2.56 6.2721 3.7109 10.752 3.7109 4.3519 0 7.936-1.151 10.752-3.7109 2.688-2.5599 4.0957-5.7597 4.0957-9.5996 0-3.5839-1.4078-6.657-4.0957-8.9609-2.8159-2.3039-6.4001-3.584-10.752-3.584zm172.97 7.9355v94.975h24.32v-94.975zm-274.1 5.377v19.967h39.424c5.1199 0 9.0874 1.1531 11.775 3.457 2.5599 2.304 3.9668 5.6307 3.9668 9.7266 0 4.2239-1.4069 7.4246-3.9668 9.7285-2.688 2.3039-6.6555 3.3281-11.775 3.3281h-39.424v43.391h25.344v-23.82h13.824l16.254 23.807h27.137l-19.32-28.16c5.5038-2.688 9.8558-6.3998 12.928-11.264 3.0719-4.8639 4.6074-10.496 4.6074-17.023 0-6.6558-1.6633-12.543-4.8633-17.535-3.3279-4.9919-7.9363-8.8316-13.824-11.52-6.0158-2.6879-13.055-4.0957-21.119-4.0957zm154.04 19.072c-7.1678 0-13.183 1.0224-18.303 3.0703-5.1199 2.048-8.9596 4.7374-11.52 8.1934-2.6879 3.4559-3.9688 7.4235-3.9688 11.775 0 5.3759 1.4087 9.599 4.2246 12.543 2.8159 3.072 6.1445 5.1206 9.9844 6.1445 3.8399 1.152 8.5752 2.0475 14.207 2.6875 4.3519 0.63999 7.4247 1.2799 9.4727 1.9199 2.048 0.63999 3.0703 1.6633 3.0703 3.1992 0 1.536-0.89462 2.816-2.5586 3.584-1.664 0.76798-4.4804 1.1523-8.3203 1.1523-4.3519 0-8.5758-0.51209-12.928-1.664-4.3519-1.152-8.1918-2.6884-11.264-4.7363l-7.2969 16.641c3.3279 2.176 7.9365 3.9681 13.568 5.248 5.6319 1.28 11.264 1.9199 17.152 1.9199 7.1678 0 13.439-0.89541 18.559-2.9434 5.1199-1.92 9.0875-4.6085 11.775-8.0645 2.5599-3.4559 3.9688-7.4235 3.9688-11.775 0-5.2479-1.4087-9.3451-4.2246-12.289s-6.0146-4.9906-9.7266-6.1426c-3.8399-1.024-8.5771-2.0493-14.209-2.9453-4.6079-0.63999-7.8066-1.28-9.7266-1.9199-2.0479-0.64001-2.9453-1.7911-2.9453-3.4551 0-1.408 0.8975-2.5591 2.6894-3.4551 1.792-0.89598 4.6074-1.4082 8.4473-1.4082 7.1678 0 13.823 1.7912 19.967 5.1191l7.2969-16.512c-3.3279-1.792-7.5521-3.3276-12.416-4.3516-4.9919-1.024-9.9847-1.5352-14.977-1.5352zm65.377 0c-6.3998 0-12.159 1.5346-17.279 4.4785-5.1199 2.9439-9.2152 7.1691-12.287 12.545-3.072 5.3759-4.4805 11.647-4.4805 18.814 0 7.1678 1.4085 13.567 4.4805 18.943 3.0719 5.3759 7.1672 9.601 12.287 12.545 5.1198 2.9439 10.879 4.3516 17.279 4.3516 8.1918 0 14.592-2.433 19.328-7.2969v30.977h24.318v-94.207h-23.166v6.9121c-4.6079-5.3759-11.393-8.0625-20.48-8.0625zm123.85 0c-7.2958 0-13.824 1.5355-19.584 4.6074-5.8879 3.072-10.367 7.423-13.695 12.799-3.3279 5.3759-4.8652 11.521-4.8652 18.305 0 6.9118 1.6643 13.183 4.9922 18.559 3.3279 5.5039 8.1921 9.7289 14.336 12.801 6.1438 3.072 13.183 4.6074 21.375 4.6074 12.928 0 22.785-3.7119 29.568-11.264l-12.801-13.312c-2.5599 2.1759-4.9919 3.7114-7.4238 4.6074-2.4319 1.024-5.2483 1.4082-8.5762 1.4082-4.4799 0-8.1909-0.8945-11.135-2.8144-2.9439-1.92-4.8647-4.7364-5.8887-8.3203h50.432c0.25598-3.8399 0.3828-5.7596 0.3828-6.0156 0-7.4238-1.6623-13.823-4.9902-19.199-3.3279-5.3759-7.6807-9.6001-13.312-12.416-5.6319-2.8159-11.903-4.3516-18.814-4.3516zm73.529 0c-7.1678 0-13.185 1.0224-18.305 3.0703-5.1199 2.048-8.9596 4.7374-11.52 8.1934-2.6879 3.4559-3.9668 7.4235-3.9668 11.775 0 5.3759 1.4067 9.599 4.2227 12.543 2.8159 3.072 6.1444 5.1206 9.9844 6.1445 3.8399 1.152 8.5752 2.0475 14.207 2.6875 4.3519 0.63999 7.4247 1.2799 9.4726 1.9199 2.048 0.63999 3.0723 1.6633 3.0723 3.1992 0 1.536-0.89658 2.816-2.5606 3.584-1.664 0.76798-4.4804 1.1523-8.3203 1.1523-4.3519 0-8.5759-0.51209-12.928-1.664-4.3519-1.152-8.1918-2.6884-11.264-4.7363l-7.2949 16.641c3.3279 2.176 7.9365 3.9681 13.568 5.248 5.6319 1.28 11.263 1.9199 17.15 1.9199 7.1678 0 13.441-0.89541 18.561-2.9434 5.1198-1.92 9.0875-4.6085 11.775-8.0645 2.5599-3.4559 3.9668-7.4235 3.9668-11.775 0-5.2479-1.4067-9.3451-4.2227-12.289-2.8159-2.9439-6.0166-4.9906-9.7285-6.1426-3.8399-1.024-8.5752-2.0493-14.207-2.9453-4.6079-0.63999-7.8086-1.28-9.7285-1.9199-2.048-0.64001-2.9434-1.7911-2.9434-3.4551 0-1.408 0.89552-2.5591 2.6875-3.4551 1.792-0.89598 4.6074-1.4082 8.4473-1.4082 7.1678 0 13.825 1.7912 19.969 5.1191l7.2949-16.512c-3.3279-1.792-7.5522-3.3276-12.416-4.3516-4.9919-1.024-9.9827-1.5352-14.975-1.5352zm65.375 0c-7.1678 0-13.183 1.0224-18.303 3.0703-5.1199 2.048-8.9596 4.7374-11.52 8.1934-2.6879 3.4559-3.9688 7.4235-3.9688 11.775 0 5.3759 1.4087 9.599 4.2246 12.543 2.8159 3.072 6.1444 5.1206 9.9844 6.1445 3.8399 1.152 8.5752 2.0475 14.207 2.6875 4.3519 0.63999 7.4247 1.2799 9.4727 1.9199 2.048 0.63999 3.0703 1.6633 3.0703 3.1992 0 1.536-0.89463 2.816-2.5586 3.584-1.664 0.76798-4.4804 1.1523-8.3203 1.1523-4.3519 0-8.5758-0.51209-12.928-1.664-4.3519-1.152-8.1918-2.6884-11.264-4.7363l-7.2949 16.641c3.3279 2.176 7.9345 3.9681 13.566 5.248 5.6319 1.28 11.264 1.9199 17.152 1.9199 7.1678 0 13.439-0.89541 18.559-2.9434 5.1199-1.92 9.0875-4.6085 11.775-8.0645 2.5599-3.4559 3.9688-7.4235 3.9688-11.775 0-5.2479-1.4087-9.3451-4.2246-12.289s-6.0147-4.9906-9.7266-6.1426c-3.8399-1.024-8.5771-2.0493-14.209-2.9453-4.6079-0.63999-7.8066-1.28-9.7266-1.9199-2.048-0.64001-2.9434-1.7911-2.9434-3.4551 0-1.408 0.89555-2.5591 2.6875-3.4551 1.792-0.89598 4.6074-1.4082 8.4473-1.4082 7.1678 0 13.823 1.7912 19.967 5.1191l7.2969-16.512c-3.3279-1.792-7.5521-3.3276-12.416-4.3516-4.9919-1.024-9.9847-1.5352-14.977-1.5352zm-393.2 1.1504v69.375h24.32v-69.375zm254.43 16.129c3.7119 0 6.7838 1.1513 9.3438 3.1992 2.5599 2.176 4.0953 5.1192 4.8633 8.7031h-28.414c0.63999-3.5839 2.1764-6.5272 4.7363-8.7031 2.56-2.048 5.6308-3.1992 9.4707-3.1992zm-118.87 2.04c4.2239 0 7.6802 1.5366 10.496 4.4805 2.6879 2.9439 4.0957 6.9114 4.0957 12.031 0 5.1199-1.4078 9.2162-4.0957 12.16-2.8159 2.9439-6.2722 4.3516-10.496 4.3516-4.3519 0-7.8062-1.4076-10.494-4.3516-2.8159-2.9439-4.0957-7.0403-4.0957-12.16 0-5.1199 1.2798-9.0873 4.0957-12.031 2.6879-2.9439 6.1422-4.4805 10.494-4.4805z"
     fill="#c63bea" /></svg>